# AST/ASF file generated using VICON BodyLanguage
# -----------------------------------------------
:version 1.10
:name VICON
:units
  mass 1.0
  length 0.45
  angle deg
:documentation
   .ast/.asf automatically generated from VICON data using
   VICON BodyBuilder and BodyLanguage model FoxedUp or BRILLIANT.MOD
:root
   order TX TY TZ RX RY RZ
   axis XYZ
   position 0 0 0  
   orientation 0 0 0 
:bonedata
  begin
     id 1 
     name lhipjoint
     direction 0.627457 -0.725269 0.283342 
     length 2.53237 
     axis 0 0 0  XYZ
  end
  begin
     id 2 
     name lfemur
     direction 0.34202 -0.939693 0  
     length 7.32496  
     axis 0 0 20  XYZ
    dof rx ry rz
    limits (-160.0 20.0)
           (-70.0 70.0)
           (-60.0 70.0)
  end
  begin
     id 3 
     name ltibia
     direction 0.34202 -0.939693 0   
     length 7.69674   
     axis 0 0 20   XYZ
    dof rx
    limits (-10.0 170.0)
  end
  begin
     id 4 
     name lfoot
     direction 0.127289 -0.349722 0.928166   
     length 1.8612   
     axis -90 7.62852e-016 20   XYZ
    dof rx rz
    limits (-45.0 90.0)
           (-70.0 20.0)
  end
  begin
     id 5 
     name ltoes
     direction 1.53561e-011 -4.21864e-011 1   
     length 0.925608   
     axis -90 7.62852e-016 20   XYZ
    dof rx
    limits (-90.0 20.0)
  end
  begin
     id 6 
     name rhipjoint
     direction -0.609094 -0.738725 0.288599   
     length 2.48624  
     axis 0 0 0  XYZ 
  end
  begin
     id 7 
     name rfemur
     direction -0.34202 -0.939693 0   
     length 7.44259   
     axis 0 0 -20   XYZ
    dof rx ry rz
    limits (-160.0 20.0)
           (-70.0 70.0)
           (-70.0 60.0)
  end
  begin
     id 8 
     name rtibia
     direction -0.34202 -0.939693 0   
     length 7.7781   
     axis 0 0 -20   XYZ
    dof rx
    limits (-10.0 170.0)
 end
 begin
     id 9 
     name rfoot
     direction -0.107015 -0.294021 0.949789   
     length 2.14741  
     axis -90 -7.62852e-016 -20   XYZ
    dof rx rz
    limits (-45.0 90.0)
           (-20.0 70.0)
  end
  begin
     id 10 
     name rtoes
     direction -1.53497e-011 -4.21924e-011 1   
     length 1.0706   
     axis -90 -7.62852e-016 -20   XYZ
    dof rx
    limits (-90.0 20.0)
  end
  begin
     id 11 
     name lowerback
     direction -0.0142066 0.998112 -0.0597545   
     length 1.86627   
     axis 0 0 0   XYZ
    dof rx ry rz
    limits (-20.0 45.0)
           (-30.0 30.0)
           (-30.0 30.0)
  end
  begin
     id 12 
     name upperback
     direction 0.00547294 0.999744 0.0219437   
     length 1.86272   
     axis 0 0 0   XYZ
    dof rx ry rz
    limits (-20.0 45.0)
           (-30.0 30.0)
           (-30.0 30.0)
  end
  begin
     id 13 
     name thorax
     direction 0.0116162 0.998704 0.0495538   
     length 1.8703   
     axis 0 0 0   XYZ
    dof rx ry rz
    limits (-20.0 45.0)
           (-30.0 30.0)
           (-30.0 30.0)
  end
  begin
     id 14 
     name lowerneck
     direction -0.0106574 0.998739 0.0490586   
     length 1.8074   
     axis 0 0 0   XYZ
    dof rx ry rz
    limits (-20.0 45.0)
           (-30.0 30.0)
           (-30.0 30.0)
  end
  begin
     id 15 
     name upperneck
     direction 0.030527 0.976587 -0.212944   
     length 1.80681   
     axis 0 0 0   XYZ
    dof rx ry rz
    limits (-20.0 45.0)
           (-30.0 30.0)
           (-30.0 30.0)
  end
  begin
     id 16
     name head
     direction 0.00869225 0.997035 -0.0764531  
     length 1.8313  
     axis 0 0 0   XYZ
    dof rx ry rz
    limits (-20.0 45.0)
           (-30.0 30.0)
           (-30.0 30.0)
  end
  begin
     id 17 
     name lclavicle
     direction 0.915958 0.399447 0.0382386  
     length 3.78965  
     axis 0 0 0   XYZ
    dof ry rz
    limits (-20.0 10.0)
           (0.0 20.0)
  end
  begin
     id 18 
     name lhumerus
     direction 1 -4.48967e-011 3.19303e-027   
     length 4.78095   
     axis -180 -30 -90   XYZ
    dof rx ry rz
    limits (-60.0 90.0)
           (-90.0 90.0)
           (-90.0 90.0)
  end
  begin
     id 19
     name lradius
     direction 1 -4.48967e-011 -3.77974e-027   
     length 3.58615   
     axis -180 -30 -90   XYZ
    dof rx
    limits (-10.0 170.0)
  end
  begin
     id 20
     name lwrist
     direction 1 -4.48927e-011 1.2807e-027   
     length 1.79307   
     axis 1.91374e-015 90 90   XYZ
    dof ry
    limits (-180.0 0.0)
 end
  begin
     id 21 
     name lhand
     direction 1 -4.49036e-011 2.5614e-027   
     length 0.659812   
     axis -1.63439e-015 90 90   XYZ
    dof rx rz
    limits (-90.0 90.0)
           (-45.0 45.0)
  end
  begin
     id 22 
     name lfingers
     direction 1 -4.49052e-011 5.1228e-027   
     length 0.531957   
     axis -3.26879e-015 90 90   XYZ
    dof rx
    limits (0.0 90.0)
  end
  begin
     id 23
     name lthumb
     direction 0.707107 -6.35012e-011 0.707107   
     length 0.763787   
     axis -90 45 2.85299e-015   XYZ
    dof rx rz
    limits (-45.0 45.0)
           (-45.0 45.0)
  end
  begin
     id 24 
     name rclavicle
     direction -0.895351 0.435135 0.0948887   
     length 3.70497  
     axis 0 0 0   XYZ 
    dof ry rz
    limits (-10.0 20.0)
           (-20.0 0.0)
  end
  begin
     id 25 
     name rhumerus
     direction -1 -4.48971e-011 2.38946e-027  
     length 4.48913   
     axis -180 30 90   XYZ
    dof rx ry rz
    limits (-90.0 60.0)
           (-90.0 90.0)
           (-90.0 90.0)
  end
  begin
     id 26 
     name rradius
     direction -1 -4.4895e-011 4.38668e-027   
     length 3.7051   
     axis -180 30 90   XYZ
    dof rx
    limits (-10.0 170.0)
  end
  begin
     id 27 
     name rwrist
     direction -1 -4.49007e-011 1.2807e-027   
     length 1.85255   
     axis 1.91374e-015 -90 -90   XYZ
    dof ry
    limits (-180.0 0.0)
  end
  begin
     id 28
     name rhand
     direction -1 -4.48851e-011 2.5614e-027   
     length 0.449136   
     axis -1.63439e-015 -90 -90   XYZ
    dof rx rz
    limits (-90.0 90.0)
           (-45.0 45.0)
  end
  begin
     id 29
     name rfingers
     direction -1 -4.49128e-011 5.1228e-027   
     length 0.362105   
     axis -3.26879e-015 -90 -90   XYZ
    dof rx
    limits (0.0 90.0)
  end
  begin
     id 30
     name rthumb
     direction -0.707107 -6.34851e-011 0.707107   
     length 0.519912   
     axis -90 -45 -2.85299e-015   XYZ
    dof rx rz
    limits (-45.0 45.0)
           (-45.0 45.0)
  end
:hierarchy
  begin
    root lhipjoint rhipjoint lowerback
    lhipjoint lfemur
    lfemur ltibia
    ltibia lfoot
    lfoot ltoes
    rhipjoint rfemur
    rfemur rtibia
    rtibia rfoot
    rfoot rtoes
    lowerback upperback
    upperback thorax
    thorax lowerneck lclavicle rclavicle
    lowerneck upperneck
    upperneck head
    lclavicle lhumerus
    lhumerus lradius
    lradius lwrist
    lwrist lhand lthumb
    lhand lfingers
    rclavicle rhumerus
    rhumerus rradius
    rradius rwrist
    rwrist rhand rthumb
    rhand rfingers
  end

#!OML:ASF I:\Actors\actors\Patient Classification 2\Patient 1\Session 1\actor1.ASF
:FULLY-SPECIFIED
:DEGREES
1
root -0.876647 18.1118 5.73658 -0.971981 -3.44061 -4.50472
lowerback 0 0 0
upperback 0 0 0
thorax 0 0 0
lowerneck 0 0 0
upperneck 0 0 0
head 0 0 0
rclavicle 0 0
rhumerus 0 0 0
rradius 0
rwrist 0
rhand 0 0
rfingers 0
rthumb 0 0
lclavicle 0 0
lhumerus 0 0 0
lradius 0
lwrist 0
lhand 0 0
lfingers 0
lthumb 0 0
rfemur 0 0 0
rtibia 0
rfoot 0 0
rtoes 0
lfemur 19.5526 -9.89688 -13.731
ltibia -18.2898
lfoot -6.19162 23.4376
ltoes -5.89793
2
root -0.877345 18.1118 5.73483 -0.942052 -3.44708 -4.48875
lowerback 0 0 0
upperback 0 0 0
thorax 0 0 0
lowerneck 0 0 0
upperneck 0 0 0
head 0 0 0
rclavicle 0 0
rhumerus 0 0 0
rradius 0
rwrist 0
rhand 0 0
rfingers 0
rthumb 0 0
lclavicle 0 0
lhumerus 0 0 0
lradius 0
lwrist 0
lhand 0 0
lfingers 0
lthumb 0 0
rfemur 0 0 0
rtibia 0
rfoot 0 0
rtoes 0
lfemur 19.4864 -9.86458 -13.7314
ltibia -18.2603
lfoot -6.17224 23.4028
ltoes -5.96667
3
root -0.878532 18.113 5.73263 -0.931511 -3.46244 -4.48521
lowerback 0 0 0
upperback 0 0 0
thorax 0 0 0
lowerneck 0 0 0
upperneck 0 0 0
head 0 0 0
rclavicle 0 0
rhumerus 0 0 0
rradius 0
rwrist 0
rhand 0 0
rfingers 0
rthumb 0 0
lclavicle 0 0
lhumerus 0 0 0
lradius 0
lwrist 0
lhand 0 0
lfingers 0
lthumb 0 0
rfemur 0 0 0
rtibia 0
rfoot 0 0
rtoes 0
lfemur 19.4556 -9.80228 -13.7154
ltibia -18.255
lfoot -6.0792 23.3502
ltoes -6.1537
4
root -0.878627 18.1135 5.73101 -0.948583 -3.48101 -4.47939
lowerback 0 0 0
upperback 0 0 0
thorax 0 0 0
lowerneck 0 0 0
upperneck 0 0 0
head 0 0 0
rclavicle 0 0
rhumerus 0 0 0
rradius 0
rwrist 0
rhand 0 0
rfingers 0
rthumb 0 0
lclavicle 0 0
lhumerus 0 0 0
lradius 0
lwrist 0
lhand 0 0
lfingers 0
lthumb 0 0
rfemur 0 0 0
rtibia 0
rfoot 0 0
rtoes 0
lfemur 19.4201 -9.81882 -13.7274
ltibia -18.1508
lfoot -6.07503 23.3428
ltoes -6.26651
5
root -0.874817 18.1092 5.73914 -1.03216 -3.58476 -4.53245
lowerback 0 0 0
upperback 0 0 0
thorax 0 0 0
lowerneck 0 0 0
upperneck 0 0 0
head 0 0 0
rclavicle 0 0
rhumerus 0 0 0
rradius 0
rwrist 0
rhand 0 0
rfingers 0
rthumb 0 0
lclavicle 0 0
lhumerus 0 0 0
lradius 0
lwrist 0
lhand 0 0
lfingers 0
lthumb 0 0
rfemur 0 0 0
rtibia 0
rfoot 0 0
rtoes 0
lfemur 19.5273 -9.88722 -13.7402
ltibia -18.0311
lfoot -6.34336 23.457
ltoes -5.91942
6
root -0.891638 18.1087 5.76418 -0.969578 -3.87659 -4.12224
lowerback 2.0904 0.867179 2.05863
upperback -1.10558 1.24066 0.972499
thorax -2.28413 0.595269 -0.205632
lowerneck -12.3479 -1.83702 -1.40345
upperneck 21.8161 -3.15643 3.8029
head 8.94765 -1.19984 1.17052
rclavicle -1.41696e-014 6.16232e-015
rhumerus -50.5404 -6.25796 -84.0433
rradius 42.6681
rwrist 14.33
rhand -7.66967 -27.5158
rfingers 7.12502
rthumb 18.2267 -56.6818
lclavicle -1.41696e-014 6.16232e-015
lhumerus -43.3634 4.40387 88.8499
lradius 36.4265
lwrist -8.20242
lhand -3.57694 -29.1225
lfingers 7.12502
lthumb 22.1602 -0.372589
rfemur 0 0 0
rtibia 0
rfoot 0 0
rtoes 0
lfemur 19.4986 -10.0869 -14.2326
ltibia -17.9079
lfoot -6.85346 23.9072
ltoes -5.22241
7
root -0.896493 18.1076 5.77409 -0.965095 -3.98744 -4.03884
lowerback 1.84892 0.890908 1.86611
upperback -1.04976 1.25892 0.983285
thorax -2.09486 0.609176 -0.0828826
lowerneck -12.4902 -1.79602 -1.44202
upperneck 21.9366 -3.07539 3.72129
head 9.0123 -1.17048 1.15802
rclavicle 1.63066e-014 8.74653e-015
rhumerus -50.4548 -6.10835 -84.0686
rradius 42.5798
rwrist 14.498
rhand -7.28563 -27.4839
rfingers 7.12502
rthumb 18.5961 -56.615
lclavicle 1.63066e-014 8.74653e-015
lhumerus -43.3573 4.45985 88.8398
lradius 36.4661
lwrist -8.25211
lhand -3.58428 -29.153
lfingers 7.12502
lthumb 22.1531 -0.402259
rfemur 0 0 0
rtibia 0
rfoot 0 0
rtoes 0
lfemur 19.4923 -10.2207 -14.3595
ltibia -17.803
lfoot -7.11344 24.1187
ltoes -4.92836
8
root -0.896635 18.1083 5.77179 -0.971075 -3.97731 -4.07254
lowerback 1.87363 0.886573 1.88656
upperback -1.05143 1.25467 0.99636
thorax -2.11041 0.606731 -0.0812109
lowerneck -12.4992 -1.79684 -1.46794
upperneck 21.9279 -3.07785 3.75301
head 9.01201 -1.17038 1.17282
rclavicle 2.23819e-014 5.76476e-015
rhumerus -50.4741 -6.0991 -84.0793
rradius 42.5994
rwrist 14.3451
rhand -7.49196 -27.4405
rfingers 7.12502
rthumb 18.3976 -56.5905
lclavicle 2.23819e-014 5.76476e-015
lhumerus -43.3299 4.44225 88.8574
lradius 36.4504
lwrist -8.23656
lhand -3.58009 -29.0737
lfingers 7.12502
lthumb 22.1571 -0.323475
rfemur 0 0 0
rtibia 0
rfoot 0 0
rtoes 0
lfemur 19.4122 -10.1652 -14.308
ltibia -17.6556
lfoot -7.14697 24.036
ltoes -4.91273
9
root -0.896398 18.1089 5.76944 -0.97025 -4.00127 -4.0813
lowerback 1.89282 0.902032 1.89718
upperback -1.05848 1.27618 0.992147
thorax -2.1278 0.617112 -0.0926491
lowerneck -12.5144 -1.78608 -1.47377
upperneck 21.9296 -3.0661 3.77313
head 9.0155 -1.16297 1.18193
rclavicle 2.82833e-014 1.25234e-014
rhumerus -50.4894 -6.1163 -84.0793
rradius 42.6224
rwrist 14.2984
rhand -7.69358 -26.9405
rfingers 7.12502
rthumb 18.2037 -56.1087
lclavicle 2.82833e-014 1.25234e-014
lhumerus -43.3157 4.40189 88.8728
lradius 36.4325
lwrist -8.17633
lhand -3.57188 -29.0377
lfingers 7.12502
lthumb 22.165 -0.288414
rfemur 0 0 0
rtibia 0
rfoot 0 0
rtoes 0
lfemur 19.3518 -10.0912 -14.2882
ltibia -17.5503
lfoot -7.15475 23.9757
ltoes -4.89654
10
root -0.903783 18.1181 5.75128 -0.769799 -3.66771 -4.05014
lowerback 1.97506 0.797636 1.72951
upperback -1.18173 1.13696 1.00037
thorax -2.30608 0.548395 0.012326
lowerneck -12.5276 -1.77239 -1.51138
upperneck 21.927 -3.05414 3.84024
head 9.01842 -1.15317 1.21245
rclavicle 4.69629e-015 4.96962e-015
rhumerus -50.4827 -6.15368 -84.0634
rradius 42.6274
rwrist 14.3789
rhand -7.87136 -25.8349
rfingers 7.12502
rthumb 18.0326 -55.019
lclavicle 4.69629e-015 4.96962e-015
lhumerus -43.3031 4.34741 88.9157
lradius 36.5409
lwrist -8.25187
lhand -3.48528 -28.583
lfingers 7.12502
lthumb 22.2482 0.156423
rfemur 0 0 0
rtibia 0
rfoot 0 0
rtoes 0
lfemur 18.8925 -9.66534 -14.1019
ltibia -17.4625
lfoot -6.715 23.3287
ltoes -5.36612
11
root -0.927821 18.1454 5.70069 -0.140808 -2.59974 -3.97001
lowerback 2.16312 0.45272 1.22052
upperback -1.53542 0.672843 1.05969
thorax -2.78759 0.3227 0.373365
lowerneck -12.6116 -1.78423 -1.57733
upperneck 21.9622 -3.0727 3.90691
head 9.04895 -1.15876 1.24379
rclavicle -2.42269e-016 -7.7526e-015
rhumerus -50.4256 -6.19048 -84.0375
rradius 42.6056
rwrist 14.4455
rhand -7.92731 -25.1722
rfingers 7.12502
rthumb 17.9788 -54.3612
lclavicle -2.42269e-016 -7.7526e-015
lhumerus -43.2844 4.24676 89.0187
lradius 36.8244
lwrist -8.46912
lhand -3.32694 -27.5918
lfingers 7.12502
lthumb 22.4002 1.12942
rfemur 0 0 0
rtibia 0
rfoot 0 0
rtoes 0
lfemur 17.5788 -8.51636 -13.5763
ltibia -17.3574
lfoot -5.43851 21.4273
ltoes -6.91216
12
root -0.927969 18.1461 5.69933 -0.142358 -2.6237 -3.97173
lowerback 2.57992 0.516816 1.43675
upperback -1.83414 0.776458 0.922797
thorax -3.32595 0.364835 0.10154
lowerneck -12.475 -1.86647 -1.56981
upperneck 22.2024 -3.22194 3.99623
head 9.11277 -1.21755 1.25788
rclavicle 7.98866e-015 3.97569e-015
rhumerus -50.9551 -6.4577 -84.0176
rradius 42.6988
rwrist 14.529
rhand -7.82234 -25.2427
rfingers 7.12502
rthumb 18.0798 -54.4224
lclavicle 7.98866e-015 3.97569e-015
lhumerus -43.7797 3.85838 88.9924
lradius 37.048
lwrist -8.54424
lhand -3.22994 -27.0937
lfingers 7.12502
lthumb 22.4933 1.61623
rfemur 0 0 0
rtibia 0
rfoot 0 0
rtoes 0
lfemur 17.5402 -8.54883 -13.581
ltibia -17.2688
lfoot -5.50673 21.4638
ltoes -6.97707
13
root -0.927889 18.1462 5.69878 -0.148832 -2.63349 -3.98141
lowerback 2.70803 0.538645 1.51771
upperback -1.93594 0.812391 0.885099
thorax -3.50164 0.378956 0.0136964
lowerneck -12.3957 -1.89576 -1.55081
upperneck 22.2509 -3.26882 3.99202
head 9.11583 -1.23885 1.2486
rclavicle -1.49089e-014 9.14409e-015
rhumerus -51.1734 -6.54782 -83.9899
rradius 42.7847
rwrist 14.5915
rhand -7.71044 -25.5227
rfingers 7.12502
rthumb 18.1874 -54.6924
lclavicle -1.49089e-014 9.14409e-015
lhumerus -43.95 3.74625 88.9773
lradius 37.0719
lwrist -8.53387
lhand -3.17782 -27.0898
lfingers 7.12502
lthumb 22.5433 1.61412
rfemur 0 0 0
rtibia 0
rfoot 0 0
rtoes 0
lfemur 17.5184 -8.54821 -13.5728
ltibia -17.2118
lfoot -5.54099 21.4575
ltoes -6.94256
14
root -0.927483 18.1455 5.69729 -0.155445 -2.62476 -4.00324
lowerback 2.71184 0.534868 1.54956
upperback -1.94259 0.80915 0.892562
thorax -3.51042 0.376582 0.00365598
lowerneck -12.4002 -1.89673 -1.54585
upperneck 22.2583 -3.26771 3.97576
head 9.11883 -1.23951 1.24234
rclavicle 1.40019e-014 2.18663e-015
rhumerus -51.1967 -6.54937 -83.973
rradius 42.7939
rwrist 14.5996
rhand -7.73024 -25.7038
rfingers 7.12502
rthumb 18.1684 -54.8753
lclavicle 1.40019e-014 2.18663e-015
lhumerus -43.9865 3.68569 89.0114
lradius 37.1234
lwrist -8.48643
lhand -3.14092 -27.0426
lfingers 7.12502
lthumb 22.5787 1.65699
rfemur 0 0 0
rtibia 0
rfoot 0 0
rtoes 0
lfemur 17.5193 -8.50299 -13.5416
ltibia -17.2154
lfoot -5.50383 21.3987
ltoes -7.05081
